<svg xmlns="http://www.w3.org/2000/svg" xmlns:xlink="http://www.w3.org/1999/xlink" version="1.1" x="0px" y="0px" viewBox="0 0 100 125" enable-background="new 0 0 100 100" xml:space="preserve"><g><path fill-rule="evenodd" clip-rule="evenodd" d="M77.202,18.767c-6.426-1.092-12.539,0.539-18.459,3.868   c-0.448-8.773-5.404-14.901-12.681-19.668c2.871,10.715-0.878,22.645-7.621,27.454c-0.483-4.909-4.046-9.741-9.089-12.373   c3.323,11.188-3.621,15.43-6.033,25.824c-1.916,8.254,1.646,14.727,7.358,18.948c1.587-13.501,6.885-25.855,21.607-35.289   c-0.441,5,2.989,11.066,5.655,13.608c1.729,0.193,3.86-0.614,5.357-1.608C67.78,46.359,69.082,53,70.231,59.631   c2.481-2.838,3.918-6.186,3.918-9.774C74.149,37.678,69.734,33.114,77.202,18.767z"/><polygon fill-rule="evenodd" clip-rule="evenodd" points="70.328,74.813 59.112,56.65 64.688,56.65 57.265,44.626 49.839,32.603    42.414,44.626 34.989,56.65 40.565,56.65 29.35,74.813 35.254,74.813 26.604,88.82 45.476,88.82 45.476,97.033 54.202,97.033    54.202,88.82 73.074,88.82 64.424,74.813  "/></g><text x="0" y="115" fill="#000000" font-size="5px" font-weight="bold" font-family="'Helvetica Neue', Helvetica, Arial-Unicode, Arial, Sans-serif">Created by Nikita Kozin</text><text x="0" y="120" fill="#000000" font-size="5px" font-weight="bold" font-family="'Helvetica Neue', Helvetica, Arial-Unicode, Arial, Sans-serif">from the Noun Project</text></svg>