<svg xmlns="http://www.w3.org/2000/svg" viewBox="0 0 200 250" x="0px" y="0px"><title>Fossil_Fuel_Pollution</title><g><path d="M149.2932,162.6614a9.0707,9.0707,0,0,1,2.0938.2526V96.008h-9.6051v64.1957c.5589.8338,1.1552,1.6506,1.7714,2.4577Z"/><path d="M53.767,162.6614a58.2348,58.2348,0,0,0,4.4511-5.5394v-84.06H48.613V162.914C49.3164,162.4455,53.767,162.6614,53.767,162.6614Z"/><path d="M143.5533,162.6614c-.6162-.8071-1.2125-1.6239-1.7714-2.4577-10.0371-14.9734-11.0589-33.7844-11.1076-39.9289H109.7352a88.327,88.327,0,0,1-2.1535,18.23c2.9667,8.463,7.5048,17.09,14.4282,24.157Z"/><rect x="107.2907" y="113.664" width="25.713" height="4.5376" rx="0.8528"/><path d="M116.5843,162.6614c-17.3684-20.18-18.61-48.9481-18.5921-57.0306H73.0061c-.01,7.2192-1.1025,32.2576-14.788,51.4912a58.2348,58.2348,0,0,1-4.4511,5.5394Z"/><path d="M125.8475,69.2827c-14.0134,0-13.57,14.5168-8.9666,17.74-3.55,1.6538-3.0378,7.2516-.2613,8.6564a5.1833,5.1833,0,0,0,1.016,9.5838c-1.34,1.7865.2951,4.6239,2.6156,4.6239a2.9983,2.9983,0,0,0,1.904-5.4358,5.1983,5.1983,0,0,0,2.1279-4.1855c7.3926,1.4355,11.3831-6.3928,8.37-11.0291C141.7819,82.3585,136.6581,69.2827,125.8475,69.2827Z"/><path d="M59.61,21.1767c-14.0134,0-13.57,14.5168-8.9666,17.74-3.55,1.6538-3.0378,7.2516-.2613,8.6564a5.1833,5.1833,0,0,0,1.016,9.5838c-1.34,1.7865.2951,4.6239,2.6156,4.6239a2.9984,2.9984,0,0,0,1.904-5.4359A5.1977,5.1977,0,0,0,58.046,52.16c7.3926,1.4355,11.3831-6.3928,8.37-11.0292C75.5447,34.2525,70.421,21.1767,59.61,21.1767Z"/><path d="M151.6228,93.9677a2.3989,2.3989,0,1,0,0-4.7956H141.546a2.3989,2.3989,0,1,0,0,4.7956Z"/><path d="M70.1849,97.9171h29.9815a1.065,1.065,0,0,1,1.065,1.065v3.5367a1.065,1.065,0,0,1-1.065,1.065H70.185a1.0651,1.0651,0,0,1-1.0651-1.0651V98.9821A1.065,1.065,0,0,1,70.1849,97.9171Z"/><path d="M58.454,71.0286a2.3989,2.3989,0,1,0,0-4.7957H48.3772a2.3989,2.3989,0,1,0,0,4.7957Z"/><path d="M149.0764,178.8233c9.845,0,9.5517-14.115,0-14.115H50.9236c-9.845,0-9.5517,14.115,0,14.115Z"/></g><text x="0" y="215" fill="#000000" font-size="5px" font-weight="bold" font-family="'Helvetica Neue', Helvetica, Arial-Unicode, Arial, Sans-serif">Created by Chanut is Industries</text><text x="0" y="220" fill="#000000" font-size="5px" font-weight="bold" font-family="'Helvetica Neue', Helvetica, Arial-Unicode, Arial, Sans-serif">from the Noun Project</text></svg>