<svg xmlns="http://www.w3.org/2000/svg" xmlns:xlink="http://www.w3.org/1999/xlink" xml:space="preserve" version="1.1" style="shape-rendering:geometricPrecision;text-rendering:geometricPrecision;image-rendering:optimizeQuality;" viewBox="0 0 235 425" x="0px" y="0px" fill-rule="evenodd" clip-rule="evenodd"><defs><style type="text/css">
   
    .fil0 {fill:black}
   
  </style></defs><g><path class="fil0" d="M131 0c-15,95 125,114 61,232 20,-13 33,-29 38,-54 46,205 -228,209 -230,46 -1,-62 58,-90 48,-146 61,37 -28,118 32,158 -12,-42 -5,-79 19,-109 -2,15 -3,36 4,50 13,28 40,23 34,-13 -10,-57 -63,-91 -6,-164z"/></g><text x="0" y="355" fill="#000000" font-size="5px" font-weight="bold" font-family="'Helvetica Neue', Helvetica, Arial-Unicode, Arial, Sans-serif">Created by Aisyah</text><text x="0" y="360" fill="#000000" font-size="5px" font-weight="bold" font-family="'Helvetica Neue', Helvetica, Arial-Unicode, Arial, Sans-serif">from the Noun Project</text></svg>