<svg xmlns="http://www.w3.org/2000/svg" xmlns:xlink="http://www.w3.org/1999/xlink" version="1.1" x="0px" y="0px" viewBox="0 0 70 87.5" style="enable-background:new 0 0 70 70;" xml:space="preserve"><g><path d="M13.27923,18.96503c-0.13995,0.29999-0.26996,0.60999-0.34998,0.92999h21.62   c1.10999-0.98004,1.79999-2.42999,1.79999-4.03003c0-0.97998-0.25995-1.91998-0.71997-2.71997   c0.46002-0.80005,0.71997-1.73004,0.71997-2.71002c0-3.01001-2.42999-5.45001-5.42999-5.45001   c-1.21997,0-2.33997,0.40002-3.25,1.07001c-1-1.14001-2.45996-1.84998-4.07996-1.84998c-2.87006,0-5.23004,2.22998-5.43005,5.04999   c-0.71997-0.35999-1.53998-0.56-2.39996-0.56c-3,0-5.44,2.44-5.44,5.45001C10.31927,16.245,11.51928,18.07501,13.27923,18.96503z"/><path d="M13.97924,27.03497c-0.41156,11.62854-1.35437,24.76849-9.33356,36.40405C4.19329,64.09875,4.67162,64.995,5.47155,64.995   h38.42773c-9.02002-12.01001-10.03003-25.81-10.45001-37.96002H13.97924z"/><path d="M12.73229,21.39368c-0.55231,0-1,0.44769-1,1v2.14581c0,0.55231,0.44769,1,1,1h21.95703c0.55225,0,1-0.44769,1-1v-2.14581   c0-0.55231-0.44775-1-1-1H12.73229z"/><path d="M64.52923,38.69501h-1.83997V25.10498c0-0.40997-0.34003-0.75-0.75-0.75c-0.41998,0-0.75,0.34003-0.75,0.75v13.59003h-5.12   v-9.54999c0-0.42004-0.34003-0.75-0.75-0.75c-0.41998,0-0.75,0.32996-0.75,0.75v9.54999H35.74926   c1.03998,8.77002,3.41998,17.51001,9.34998,25.39996l0.67999,0.90002h0.30005v-7.52002c0-0.40997,0.33997-0.75,0.75-0.75h6.91998   v8.32001c0,0.41003,0.34003,0.75,0.75,0.75c0.41998,0,0.75-0.33997,0.75-0.75v-8.32001h6.91998c0.41003,0,0.75,0.34003,0.75,0.75   V64.995h2.60999V39.69501C65.52923,39.14502,65.07928,38.69501,64.52923,38.69501z M45.2196,53.19147c0,0.55225-0.44775,1-1,1   h-2.60101c-0.55231,0-1-0.44775-1-1v-2.60101c0-0.55231,0.44769-1,1-1h2.60101c0.55225,0,1,0.44769,1,1V53.19147z    M45.2196,45.64636c0,0.55231-0.44775,1-1,1h-2.60101c-0.55231,0-1-0.44769-1-1v-2.60101c0-0.55225,0.44769-1,1-1h2.60101   c0.55225,0,1,0.44775,1,1V45.64636z M53.57873,53.19147c0,0.55225-0.44775,1-1,1h-2.60101c-0.55231,0-1-0.44775-1-1v-2.60101   c0-0.55231,0.44769-1,1-1h2.60101c0.55225,0,1,0.44769,1,1V53.19147z M53.57873,45.64636c0,0.55231-0.44775,1-1,1h-2.60101   c-0.55231,0-1-0.44769-1-1v-2.60101c0-0.55225,0.44769-1,1-1h2.60101c0.55225,0,1,0.44775,1,1V45.64636z M61.93786,53.19147   c0,0.55225-0.44775,1-1,1h-2.60101c-0.55231,0-1-0.44775-1-1v-2.60101c0-0.55231,0.44769-1,1-1h2.60101c0.55225,0,1,0.44769,1,1   V53.19147z M61.93786,45.64636c0,0.55231-0.44775,1-1,1h-2.60101c-0.55231,0-1-0.44769-1-1v-2.60101c0-0.55225,0.44769-1,1-1   h2.60101c0.55225,0,1,0.44775,1,1V45.64636z"/></g><text x="0" y="85" fill="#000000" font-size="5px" font-weight="bold" font-family="'Helvetica Neue', Helvetica, Arial-Unicode, Arial, Sans-serif">Created by Vectors Point</text><text x="0" y="90" fill="#000000" font-size="5px" font-weight="bold" font-family="'Helvetica Neue', Helvetica, Arial-Unicode, Arial, Sans-serif">from the Noun Project</text></svg>