<svg xmlns="http://www.w3.org/2000/svg" xmlns:xlink="http://www.w3.org/1999/xlink" version="1.1" x="0px" y="0px" viewBox="0 0 100 125" enable-background="new 0 0 100 100" xml:space="preserve"><rect fill="none" width="100" height="100"/><g><path d="M81.2,74.62c0,0-8.613-12.921-8.613-37.224h-7.076h-1.383h-7.076c0,7.977-0.93,14.718-2.177,20.189   c2.881,11.213,6.636,17.716,7.472,19.076h5.277v3.804h17.423V74.62H81.2z"/><path d="M61.516,77.595C61.448,77.494,57.5,71.441,54.287,60c-2.184-7.772-4.028-18.03-4.085-30.603H31.174   c-0.142,31.078-11.202,48.029-11.314,48.198l-0.178,0.268h-4.728v6.408h51.47v-3.806v-2.603h-4.729L61.516,77.595z"/><path d="M36.833,26.493c0.113,0,0.224-0.014,0.332-0.034c0.18,0.834,0.92,1.46,1.809,1.46c0.663,0,1.24-0.351,1.567-0.875   c0.326,0.284,0.746,0.461,1.212,0.461c0.852,0,1.563-0.579,1.778-1.363c0.304,0.217,0.673,0.349,1.075,0.349   c1.023,0,1.853-0.829,1.853-1.853c0-0.48-0.188-0.912-0.486-1.242c0.223-0.23,0.382-0.519,0.463-0.839   c0.262,0.142,0.556,0.229,0.874,0.229c0.826,0,1.518-0.544,1.756-1.291c0.206,0.079,0.426,0.127,0.66,0.127   c0.982,0,1.777-0.765,1.84-1.731c0.055,0.004,0.106,0.016,0.162,0.016c1.023,0,1.853-0.829,1.853-1.852s-0.829-1.852-1.853-1.852   c-0.355,0-0.686,0.105-0.967,0.279c-0.338-0.456-0.875-0.755-1.486-0.755c-0.798,0-1.472,0.507-1.733,1.214   c-0.159-0.044-0.323-0.076-0.496-0.076c-0.747,0-1.387,0.444-1.68,1.081c-0.232-0.105-0.489-0.167-0.761-0.167   c-1.023,0-1.852,0.829-1.852,1.853c0,0.035,0.008,0.068,0.01,0.103c-0.291-0.19-0.638-0.303-1.012-0.303   c-1.023,0-1.853,0.829-1.853,1.852c0,0.178,0.033,0.346,0.08,0.509c-0.154-0.042-0.313-0.071-0.48-0.071   c-0.833,0-1.528,0.553-1.762,1.309c-0.269-0.151-0.574-0.245-0.904-0.245c-1.023,0-1.852,0.829-1.852,1.852   S35.81,26.493,36.833,26.493z"/><path d="M61.313,34.572c0.099,0,0.193-0.012,0.288-0.029c0.154,0.721,0.794,1.262,1.563,1.262c0.572,0,1.071-0.303,1.354-0.755   c0.281,0.245,0.645,0.398,1.048,0.398c0.736,0,1.351-0.5,1.536-1.178c0.263,0.188,0.582,0.302,0.929,0.302   c0.885,0,1.601-0.716,1.601-1.601c0-0.415-0.162-0.789-0.419-1.073c0.192-0.198,0.33-0.448,0.399-0.725   c0.227,0.122,0.48,0.198,0.756,0.198c0.713,0,1.311-0.47,1.517-1.116c0.179,0.068,0.369,0.109,0.57,0.109   c0.848,0,1.535-0.661,1.59-1.496c0.048,0.004,0.093,0.015,0.14,0.015c0.885,0,1.603-0.716,1.603-1.601s-0.718-1.601-1.603-1.601   c-0.307,0-0.591,0.091-0.835,0.241c-0.292-0.394-0.756-0.652-1.284-0.652c-0.688,0-1.271,0.438-1.496,1.049   c-0.139-0.039-0.28-0.065-0.43-0.065c-0.645,0-1.196,0.384-1.45,0.934c-0.2-0.091-0.422-0.145-0.658-0.145   c-0.884,0-1.601,0.716-1.601,1.601c0,0.03,0.009,0.06,0.01,0.089c-0.251-0.165-0.552-0.262-0.874-0.262   c-0.885,0-1.603,0.716-1.603,1.601c0,0.154,0.028,0.299,0.069,0.44c-0.132-0.037-0.27-0.062-0.414-0.062   c-0.719,0-1.321,0.478-1.521,1.13c-0.233-0.131-0.498-0.211-0.783-0.211c-0.884,0-1.601,0.716-1.601,1.601   S60.43,34.572,61.313,34.572z"/></g><text x="0" y="115" fill="#000000" font-size="5px" font-weight="bold" font-family="'Helvetica Neue', Helvetica, Arial-Unicode, Arial, Sans-serif">Created by Marco Livolsi</text><text x="0" y="120" fill="#000000" font-size="5px" font-weight="bold" font-family="'Helvetica Neue', Helvetica, Arial-Unicode, Arial, Sans-serif">from the Noun Project</text></svg>